<?xml version="1.0" encoding="UTF-8" standalone="no"?>
<!DOCTYPE svg PUBLIC "-//W3C//DTD SVG 1.1//EN" "http://www.w3.org/Graphics/SVG/1.1/DTD/svg11.dtd">
<svg width="100%" height="100%" viewBox="0 0 620 620" version="1.1" xmlns="http://www.w3.org/2000/svg" xmlns:xlink="http://www.w3.org/1999/xlink" xml:space="preserve" xmlns:serif="http://www.serif.com/" style="fill-rule:evenodd;clip-rule:evenodd;stroke-linejoin:round;stroke-miterlimit:2;">
    <g transform="matrix(1,0,0,1,34.4252,-2.32334)">
        <g transform="matrix(1,0,0,1,-365.2,-54.2005)">
            <g transform="matrix(1.09014,0,0,1.09014,340.366,366.449)">
                <circle cx="275.5" cy="0" r="284.298" style="fill:white;"/>
            </g>
        </g>
        <g transform="matrix(1,0,0,1,-365.2,-54.2005)">
            <g>
                <g>
                    <g>
                        <g transform="matrix(1.00935,0,0,1,370,71)">
                            <path d="M317.358,534.997C317.134,534.997 316.916,534.997 316.693,534.992C298.432,534.727 281.932,523.977 267.504,502.979C253.073,523.974 236.576,534.725 218.316,534.992C184.005,535.578 156.362,497.413 148.383,485.171C132.655,481.72 121.187,474.156 114.263,462.642C105.516,448.104 106.694,431.122 108.49,421.306C65.17,398.455 60.806,351.984 65.397,324.966C43.216,308.812 29.641,288.93 25.01,265.787C17.865,230.078 34.504,198.038 40.144,188.505C37.312,142.264 46.498,107.405 67.471,84.878C83.935,67.19 103.21,62.205 112.969,60.803C127.833,29.535 153.094,23.503 168.432,24.972C213.074,-16.481 252.534,3.775 267.499,14.466C282.464,3.77 321.921,-16.481 366.563,24.972C381.901,23.497 407.167,29.532 422.026,60.803C431.787,62.205 451.059,67.19 467.524,84.878C488.497,107.408 497.683,142.264 494.851,188.505C500.488,198.038 517.129,230.078 509.985,265.787C505.356,288.932 491.781,308.815 469.598,324.966C474.188,351.984 469.822,398.455 426.505,421.306C428.301,431.122 429.479,448.102 420.731,462.642C413.805,474.156 402.337,481.725 386.609,485.171C378.701,497.328 351.412,534.992 317.358,534.997ZM267.327,476.162C270.723,476.162 274.207,478.013 275.84,480.995C288.597,504.268 302.431,516.181 316.96,516.388L317.355,516.388C341.574,516.388 365.608,484.465 372.857,472.095C374.252,469.712 376.635,468.072 379.361,467.619C391.605,465.586 400.151,460.712 404.752,453.117C413.276,439.063 406.944,419.267 406.884,419.068C405.382,414.481 407.628,409.476 412.066,407.582C464.825,385.085 450.847,325.595 450.228,323.074C449.287,319.26 450.841,315.245 454.112,313.075C483.225,293.76 496.159,268.534 492.547,238.105C489.742,214.483 477.759,196.198 477.637,196.018C476.497,194.301 475.952,192.24 476.096,190.19C479.119,148.026 471.746,116.957 454.18,97.835C437.176,79.334 416.525,78.86 415.656,78.849C411.897,78.802 408.481,76.499 407.083,73.015C392.851,37.612 365.985,43.84 365.715,43.917C362.569,44.702 359.219,43.783 356.905,41.482C337.938,22.608 318.426,15.347 298.933,19.915C284.015,23.404 274.311,32.751 274.212,32.844C272.473,34.542 270.11,35.524 267.681,35.524L267.327,35.524C264.865,35.524 262.508,34.551 260.763,32.817C260.698,32.751 250.988,23.404 236.069,19.915C216.577,15.36 197.065,22.608 178.098,41.482C175.786,43.78 172.445,44.688 169.288,43.917C166.589,43.306 141.705,38.724 127.92,73.015C126.505,76.537 123.087,78.849 119.29,78.849C118.475,78.857 97.824,79.331 80.822,97.835C63.257,116.951 55.883,148.023 58.906,190.19C59.056,192.256 58.511,194.312 57.358,196.034C57.252,196.201 45.263,214.48 42.458,238.103C38.849,268.537 51.781,293.757 80.893,313.073C84.183,315.253 85.737,319.269 84.772,323.093C84.159,325.595 70.178,385.082 122.937,407.582C127.399,409.484 129.651,414.494 128.111,419.096C128.056,419.262 121.727,439.057 130.245,453.112C134.846,460.703 143.392,465.586 155.637,467.614C158.354,468.066 160.74,469.707 162.135,472.079C169.468,484.528 193.799,516.562 218.065,516.377C232.586,516.153 246.406,504.244 259.157,480.984C260.801,478.013 263.928,476.162 267.327,476.162ZM267.681,26.228L267.728,26.228L267.681,26.228Z" style="fill:rgb(96,47,117);fill-rule:nonzero;"/>
                        </g>
                        <g transform="matrix(1.00935,0,0,1,370,71)">
                            <path d="M363.117,139.475L363.046,139.475C357.932,139.437 353.808,135.315 353.808,130.204C353.808,128.163 354.473,79.942 412.434,60.719C417.291,59.105 422.577,61.741 424.193,66.623C425.812,71.5 423.171,76.766 418.289,78.383C373.445,93.255 372.437,128.765 372.418,130.267C372.347,135.359 368.195,139.475 363.117,139.475Z" style="fill:rgb(96,47,117);fill-rule:nonzero;"/>
                        </g>
                        <g transform="matrix(1.00935,0,0,1,370,71)">
                            <path d="M420.947,345.44C416.253,345.44 411.643,344.783 407.126,343.466C376.994,334.692 363.651,299.558 363.098,298.069C361.312,293.25 363.768,287.896 368.582,286.108C373.402,284.331 378.747,286.773 380.538,291.579C380.748,292.132 391.382,319.552 412.395,325.614C424.305,329.057 438.062,324.949 453.273,313.411C457.372,310.303 463.206,311.113 466.308,315.202C469.41,319.296 468.611,325.135 464.517,328.237C449.432,339.691 434.829,345.44 420.947,345.44Z" style="fill:rgb(96,47,117);fill-rule:nonzero;"/>
                        </g>
                        <g transform="matrix(1.00935,0,0,1,370,71)">
                            <path d="M328.288,408.124C327.539,408.124 326.776,408.031 326.012,407.84C321.049,406.595 318.028,401.574 319.239,396.604C319.56,395.214 325.816,366.17 295.592,336.09C291.95,332.465 291.936,326.571 295.559,322.929C299.184,319.29 305.072,319.274 308.714,322.897C346.857,360.855 337.706,399.458 337.3,401.08C336.245,405.308 332.454,408.124 328.288,408.124Z" style="fill:rgb(96,47,117);fill-rule:nonzero;"/>
                        </g>
                        <g transform="matrix(1.00935,0,0,1,370,71)">
                            <path d="M414.154,253.43C395.484,253.43 372.837,248.03 356.602,226.531C342.744,208.178 336.709,192.253 332.298,180.625C327.195,167.156 325.723,164.916 321.812,164.589C316.69,164.169 312.879,159.677 313.299,154.555C313.719,149.433 318.287,145.586 323.33,146.042C339.604,147.377 344.507,160.32 349.697,174.028C353.931,185.193 359.197,199.09 371.45,215.317C395.064,246.583 439.526,231.111 441.415,230.438C446.24,228.718 451.572,231.214 453.316,236.034C455.061,240.864 452.578,246.18 447.753,247.935C446.57,248.368 432.229,253.43 414.154,253.43Z" style="fill:rgb(96,47,117);fill-rule:nonzero;"/>
                        </g>
                        <g transform="matrix(1.00935,0,0,1,370,71)">
                            <path d="M267.327,494.771C262.191,494.771 258.023,490.604 258.023,485.468L258.023,26.228C258.023,21.093 262.191,16.925 267.327,16.925C272.462,16.925 276.63,21.093 276.63,26.228L276.63,485.468C276.633,490.601 272.462,494.771 267.327,494.771Z" style="fill:rgb(96,47,117);fill-rule:nonzero;"/>
                        </g>
                        <g transform="matrix(1.00935,0,0,1,370,71)">
                            <path d="M295.594,207.219C293.572,207.219 291.533,206.562 289.821,205.204C285.792,202.012 285.119,196.16 288.308,192.131C317.249,155.607 316.845,97.682 316.834,97.101C316.769,91.966 320.877,87.746 326.012,87.675C331.093,87.787 335.368,91.704 335.441,96.84C335.479,99.478 336.005,161.901 302.886,203.691C301.057,206.011 298.339,207.219 295.594,207.219Z" style="fill:rgb(96,47,117);fill-rule:nonzero;"/>
                        </g>
                        <g transform="matrix(1.00935,0,0,1,370,71)">
                            <path d="M302.158,451.449C301.177,451.449 300.182,451.291 299.201,450.964C294.329,449.331 291.702,444.059 293.335,439.185C294.13,436.803 313.348,380.846 354.402,380.846C359.538,380.846 363.706,385.014 363.706,390.15C363.706,395.285 359.538,399.453 354.402,399.453C327.035,399.453 311.129,444.634 310.979,445.095C309.676,448.988 306.048,451.449 302.158,451.449Z" style="fill:rgb(96,47,117);fill-rule:nonzero;"/>
                        </g>
                        <g transform="matrix(1.00935,0,0,1,370,71)">
                            <path d="M336.984,70.191C335.043,70.191 333.091,69.592 331.42,68.341C327.304,65.26 326.465,59.432 329.54,55.319L351.897,25.43C354.978,21.308 360.811,20.471 364.919,23.552C369.035,26.632 369.874,32.46 366.8,36.573L344.442,66.462C342.613,68.902 339.813,70.191 336.984,70.191Z" style="fill:rgb(96,47,117);fill-rule:nonzero;"/>
                        </g>
                        <g transform="matrix(1.00935,0,0,1,370,71)">
                            <path d="M174.126,250.424C168.991,250.424 164.823,246.256 164.823,241.12L164.823,148.394C164.823,143.259 168.991,139.091 174.126,139.091C179.262,139.091 183.43,143.259 183.43,148.394L183.43,241.12C183.43,246.261 179.267,250.424 174.126,250.424Z" style="fill:rgb(96,47,117);fill-rule:nonzero;"/>
                        </g>
                        <g transform="matrix(1.00935,0,0,1,370,71)">
                            <path d="M202.086,250.424L136.858,250.424C131.723,250.424 127.555,246.256 127.555,241.12C127.555,235.985 131.723,231.817 136.858,231.817L202.086,231.817C207.221,231.817 211.389,235.985 211.389,241.12C211.389,246.256 207.221,250.424 202.086,250.424Z" style="fill:rgb(96,47,117);fill-rule:nonzero;"/>
                        </g>
                        <g transform="matrix(1.00935,0,0,1,370,71)">
                            <path d="M202.086,306.059C196.95,306.059 192.782,301.891 192.782,296.755L192.782,241.12C192.782,235.985 196.95,231.817 202.086,231.817C207.221,231.817 211.389,235.985 211.389,241.12L211.389,296.755C211.389,301.896 207.221,306.059 202.086,306.059Z" style="fill:rgb(96,47,117);fill-rule:nonzero;"/>
                        </g>
                        <g transform="matrix(1.00935,0,0,1,370,71)">
                            <path d="M202.086,408.059C196.95,408.059 192.782,403.891 192.782,398.755L192.782,352.391C192.782,347.255 196.95,343.087 202.086,343.087C207.221,343.087 211.389,347.255 211.389,352.391L211.389,398.755C211.389,403.896 207.221,408.059 202.086,408.059Z" style="fill:rgb(96,47,117);fill-rule:nonzero;"/>
                        </g>
                        <g transform="matrix(1.00935,0,0,1,370,71)">
                            <path d="M202.094,120.582C202.094,135.947 189.576,148.402 174.135,148.402C158.693,148.402 146.175,135.947 146.175,120.582C146.175,105.217 158.693,92.762 174.135,92.762C189.576,92.762 202.094,105.217 202.094,120.582Z" style="fill:rgb(0,231,255);fill-rule:nonzero;"/>
                        </g>
                        <g transform="matrix(1.00935,0,0,1,370,71)">
                            <path d="M174.126,157.698C153.579,157.698 136.866,141.042 136.866,120.579C136.866,100.116 153.581,83.461 174.126,83.461C194.671,83.461 211.386,100.116 211.386,120.579C211.386,141.042 194.674,157.698 174.126,157.698ZM174.126,102.062C163.842,102.062 155.476,110.365 155.476,120.574C155.476,130.779 163.842,139.085 174.126,139.085C184.411,139.085 192.777,130.782 192.777,120.574C192.777,110.365 184.411,102.062 174.126,102.062Z" style="fill:rgb(0,231,255);fill-rule:nonzero;"/>
                        </g>
                        <g transform="matrix(1.00935,0,0,1,370,71)">
                            <path d="M136.872,241.12C136.872,256.485 124.354,268.941 108.912,268.941C93.471,268.941 80.953,256.485 80.953,241.12C80.953,225.756 93.471,213.3 108.912,213.3C124.354,213.3 136.872,225.756 136.872,241.12Z" style="fill:rgb(0,231,255);fill-rule:nonzero;"/>
                        </g>
                        <g transform="matrix(1.00935,0,0,1,370,71)">
                            <path d="M108.899,278.244C88.351,278.244 71.639,261.589 71.639,241.123C71.639,220.657 88.354,204.005 108.899,204.005C129.444,204.005 146.159,220.66 146.159,241.126C146.159,261.592 129.441,278.244 108.899,278.244ZM108.899,222.609C98.614,222.609 90.248,230.912 90.248,241.12C90.248,251.326 98.614,259.632 108.899,259.632C119.184,259.632 127.549,251.329 127.549,241.12C127.549,230.915 119.184,222.609 108.899,222.609Z" style="fill:rgb(0,231,255);fill-rule:nonzero;"/>
                        </g>
                        <g transform="matrix(1.00935,0,0,1,370,71)">
                            <path d="M230.053,324.581C230.053,339.946 217.535,352.402 202.094,352.402C186.652,352.402 174.135,339.946 174.135,324.581C174.135,309.217 186.652,296.761 202.094,296.761C217.535,296.761 230.053,309.217 230.053,324.581Z" style="fill:rgb(0,231,255);fill-rule:nonzero;"/>
                        </g>
                        <g transform="matrix(1.00935,0,0,1,370,71)">
                            <path d="M202.086,361.694C181.538,361.694 164.826,345.039 164.826,324.573C164.826,304.104 181.541,287.449 202.086,287.449C222.631,287.449 239.346,304.104 239.346,324.573C239.346,345.044 222.631,361.694 202.086,361.694ZM202.086,306.059C191.801,306.059 183.435,314.367 183.435,324.576C183.435,334.781 191.801,343.087 202.086,343.087C212.37,343.087 220.736,334.784 220.736,324.576C220.736,314.367 212.368,306.059 202.086,306.059Z" style="fill:rgb(0,231,255);fill-rule:nonzero;"/>
                        </g>
                        <g transform="matrix(1.00935,0,0,1,370,71)">
                            <path d="M444.381,139.145C444.381,149.387 436.028,157.689 425.725,157.689C415.422,157.689 407.069,149.387 407.069,139.145C407.069,128.904 415.422,120.601 425.725,120.601C436.028,120.601 444.381,128.904 444.381,139.145Z" style="fill:rgb(234,52,87);fill-rule:nonzero;"/>
                        </g>
                        <g transform="matrix(1.00935,0,0,1,370,71)">
                            <path d="M341.893,259.684C341.893,269.925 333.541,278.228 323.237,278.228C312.934,278.228 304.581,269.925 304.581,259.684C304.581,249.442 312.934,241.139 323.237,241.139C333.541,241.139 341.893,249.442 341.893,259.684Z" style="fill:rgb(234,52,87);fill-rule:nonzero;"/>
                        </g>
                        <g transform="matrix(1.00935,0,0,1,370,71)">
                            <path d="M453.684,287.501C453.684,297.743 445.332,306.045 435.028,306.045C424.725,306.045 416.373,297.743 416.373,287.501C416.373,277.259 424.725,268.957 435.028,268.957C445.332,268.957 453.684,277.259 453.684,287.501Z" style="fill:rgb(255,230,0);fill-rule:nonzero;"/>
                        </g>
                        <g transform="matrix(1.00935,0,0,1,370,71)">
                            <path d="M341.893,482.194C341.893,492.436 333.541,500.738 323.237,500.738C312.934,500.738 304.581,492.436 304.581,482.194C304.581,471.953 312.934,463.65 323.237,463.65C333.541,463.65 341.893,471.953 341.893,482.194Z" style="fill:rgb(255,230,0);fill-rule:nonzero;"/>
                        </g>
                        <g transform="matrix(1.00935,0,0,1,370,71)">
                            <path d="M388.462,435.86C388.462,446.101 380.11,454.404 369.806,454.404C359.503,454.404 351.15,446.101 351.15,435.86C351.15,425.618 359.503,417.316 369.806,417.316C380.11,417.316 388.462,425.618 388.462,435.86Z" style="fill:rgb(234,52,87);fill-rule:nonzero;"/>
                        </g>
                        <g transform="matrix(1.00935,0,0,1,370,71)">
                            <path d="M230.053,426.556C230.053,441.921 217.535,454.377 202.094,454.377C186.652,454.377 174.135,441.921 174.135,426.556C174.135,411.192 186.652,398.736 202.094,398.736C217.535,398.736 230.053,411.192 230.053,426.556Z" style="fill:rgb(0,231,255);fill-rule:nonzero;"/>
                        </g>
                        <g transform="matrix(1.00935,0,0,1,370,71)">
                            <path d="M202.086,463.699C181.538,463.699 164.826,447.044 164.826,426.575C164.826,406.107 181.541,389.454 202.086,389.454C222.631,389.454 239.346,406.11 239.346,426.575C239.346,447.044 222.631,463.699 202.086,463.699ZM202.086,408.059C191.801,408.059 183.435,416.362 183.435,426.57C183.435,436.778 191.801,445.087 202.086,445.087C212.37,445.087 220.736,436.778 220.736,426.57C220.736,416.362 212.368,408.059 202.086,408.059Z" style="fill:rgb(0,231,255);fill-rule:nonzero;"/>
                        </g>
                    </g>
                </g>
            </g>
        </g>
        <g transform="matrix(1,0,0,1,-365.2,-54.2005)">
            <g transform="matrix(1,0,0,1,520.48,653)">
                <text x="0px" y="0px" style="font-family:'Arial-BoldMT', 'Arial', sans-serif;font-weight:700;font-size:43px;fill:rgb(127,127,127);">Learn</text>
                <g transform="matrix(1,0,0,1,132.467,0)">
                    <text x="0px" y="0px" style="font-family:'Arial-BoldMT', 'Arial', sans-serif;font-weight:700;font-size:43px;fill:rgb(96,47,117);">Hack</text>
                </g>
            </g>
        </g>
    </g>
</svg>
